<?xml version="1.0" encoding="utf-8"?>
<!-- Generator: Adobe Illustrator 16.0.0, SVG Export Plug-In . SVG Version: 6.00 Build 0)  -->
<!DOCTYPE svg PUBLIC "-//W3C//DTD SVG 1.1//EN" "http://www.w3.org/Graphics/SVG/1.1/DTD/svg11.dtd">
<svg version="1.1" id="Layer_1" xmlns="http://www.w3.org/2000/svg" xmlns:xlink="http://www.w3.org/1999/xlink" x="0px" y="0px"
	 width="100px" height="100px" viewBox="0 0 100 100" enable-background="new 0 0 100 100" xml:space="preserve">
<g>
	<path fill="#004071" d="M33.77,48.435c-1.591,0.369-3.152,0.958-4.608,1.747c-1.454,0.8-2.791,1.807-3.954,2.967
		c-1.17,1.163-2.167,2.47-3.042,3.821c-0.437,0.678-0.844,1.373-1.205,2.088c-0.358,0.717-0.665,1.456-0.94,2.198
		c-0.33,0.901-0.592,1.817-0.828,2.731c-0.047-0.877-0.164-1.765-0.403-2.638c-0.275-1.028-0.711-2.025-1.298-2.946
		c-1.152-1.846-2.876-3.369-4.833-4.244c-1.958-0.862-4.092-1.189-6.108-0.759l-0.003,0.351c1.843,0.609,3.51,1.456,4.907,2.5
		c1.402,1.05,2.518,2.321,3.364,3.786c0.826,1.463,1.532,3.052,2.134,4.802c0.286,0.873,0.53,1.786,0.672,2.721
		c0.146,0.936,0.198,1.89,0.159,2.835l1.062,0.114c0.21-1.443,0.665-2.902,1.28-4.252c0.605-1.363,1.381-2.643,2.181-3.869
		c0.4-0.611,0.815-1.209,1.23-1.796c0.418-0.586,0.836-1.166,1.285-1.719c0.89-1.11,1.879-2.113,2.92-3.027
		c2.085-1.83,4.367-3.364,6.968-4.471c2.591-1.116,5.457-1.77,8.507-2.292l0.023-0.348C40.245,47.833,36.961,47.701,33.77,48.435z"
		/>
	<path fill="#004071" d="M68.254,31.35c-1.734,0.95-3.35,2.15-4.782,3.546c-1.428,1.402-2.647,3.012-3.618,4.749
		c-0.977,1.731-1.703,3.578-2.275,5.438c-0.285,0.932-0.529,1.875-0.711,2.82c-0.182,0.95-0.296,1.911-0.374,2.866
		c-0.082,1.155-0.087,2.305-0.057,3.447c-0.343-1.007-0.773-1.996-1.334-2.935c-0.659-1.103-1.496-2.123-2.477-3
		c-1.952-1.766-4.461-2.965-7.016-3.333c-2.557-0.364-5.147-0.037-7.346,1.127l0.106,0.405c2.35,0.109,4.559,0.537,6.527,1.298
		c1.973,0.752,3.694,1.864,5.153,3.281c1.444,1.434,2.788,3.045,4.061,4.879c0.617,0.921,1.203,1.902,1.677,2.938
		c0.478,1.038,0.851,2.127,1.116,3.247l1.271-0.223c-0.229-1.739-0.182-3.588,0.088-5.358c0.255-1.784,0.732-3.525,1.262-5.214
		c0.261-0.84,0.545-1.671,0.836-2.492c0.296-0.817,0.594-1.625,0.931-2.414c0.67-1.583,1.484-3.079,2.394-4.486
		c1.822-2.806,3.961-5.345,6.625-7.477c2.648-2.149,5.757-3.857,9.128-5.462l-0.089-0.416C75.575,28.515,71.717,29.444,68.254,31.35
		z"/>
	<path fill="#58595B" d="M93.229,60.342l-0.473-30.456L66.313,45L77.2,44.887c-0.728,1.038-1.474,2.071-2.259,3.079
		c-2.072,2.643-4.341,5.164-6.791,7.513c-4.892,4.693-10.51,8.707-16.719,11.674c-6.206,2.979-13.007,4.876-20.045,5.552
		c-7.038,0.688-14.273,0.166-21.368-1.301c6.799,2.489,14.016,4.127,21.436,4.501c7.414,0.388,15.007-0.526,22.288-2.777
		c7.279-2.233,14.206-5.759,20.493-10.219c3.141-2.228,6.132-4.688,8.956-7.359c1.408-1.337,2.778-2.727,4.103-4.186
		c0.15-0.166,0.296-0.335,0.452-0.506L93.229,60.342z"/>
	<circle fill="#004071" cx="51.621" cy="38.38" r="4.728"/>
	<path fill="#004071" d="M23.412,49.767c0,2.134-1.727,3.856-3.855,3.856c-2.132,0-3.855-1.722-3.855-3.856
		c0-2.129,1.724-3.853,3.855-3.853C21.685,45.914,23.412,47.638,23.412,49.767z"/>
</g>
</svg>
